# xmcd
#
# Track frame offsets:
#  150
#  12629
#  23708
#  36505
#  48447
#  57709
#  70076
#  83240
#  93264
#  104650
#  115424
#  126935
#  139303
#  150602
#  162652
#  173398
#  185392
#  197464
#  210236
#  222773
#  234201
#  245472
#  257247
#  267442
#  278205
#  288756
#  298898
#  311922
#  324451
#  337795
#  347579
#
# Disc length: 4790 seconds
#
# Revision: 0
# Processed by: cddbd v1.5.2PL0 Copyright (c) Steve Scherf et al.
# Submitted via: AltoMP3_Maker 3.0
#
DISCID=d312b41f
DTITLE=Anthologies - Country - RCA Victor Hillbilly, Vol. 5
DYEAR=1900
DGENRE=
TTITLE0=Porter Wagoner - Don't Play That Song
TTITLE1=Don Winters - I've Been Thinking It Over
TTITLE2=Elton Britt - Blue Guitar
TTITLE3=Jimmie Rodgers Snow - Love Me
TTITLE4=Carol Johnson - According to Law
TTITLE5=Charline Arthur - The Good and the Bad
TTITLE6=Wade Ray - Let Me Go, Devil
TTITLE7=Kenny Lee - Runaway Angel
TTITLE8=Tommy Sands - Transfer
TTITLE9=Hawkshaw Hawkins - Why Don't You Leave This Town
TTITLE10=Terry Fell - Don't Do It Joe
TTITLE11=Dave Rich - Darling, I'm Lonesome
TTITLE12=Curtis Gordon - What a Little Pride
TTITLE13=Redd Stewart - Don't Make Me Fall in Love with You
TTITLE14=Merv Shiner - Don't Believe
TTITLE15=Don Gibson - Red Lips, White Lies and Blue Hours
TTITLE16=Eddie Marshall - I Could Lose These Blues
TTITLE17=Billy McGhee - Rumors
TTITLE18=Jimmy Murphy - Mother, Where Is Your Daughter
TTITLE19=Ken Marvin - Forbidden Love
TTITLE20=Jimmy Smith - Angel from East Tennessee
TTITLE21=Dick Williams - Robber
TTITLE22=Don Winters - Forgive My Mistake
TTITLE23=Jack Turner - I Couldn't Keep from Crying
TTITLE24=Kenny Lee - But Not Like Mine
TTITLE25=Skeeter Bonn - There's No Use Now
TTITLE26=Tommy Sands - Never Let Me Go
TTITLE27=Charline Arthur - Double-crossed by Love
TTITLE28=Eddy Arnold - How's the World Treating You
TTITLE29=Buddy Thompson - Point of No Return
TTITLE30=Autry Inman - The Hard Way
EXTD=
EXTT0=
EXTT1=
EXTT2=
EXTT3=
EXTT4=
EXTT5=
EXTT6=
EXTT7=
EXTT8=
EXTT9=
EXTT10=
EXTT11=
EXTT12=
EXTT13=
EXTT14=
EXTT15=
EXTT16=
EXTT17=
EXTT18=
EXTT19=
EXTT20=
EXTT21=
EXTT22=
EXTT23=
EXTT24=
EXTT25=
EXTT26=
EXTT27=
EXTT28=
EXTT29=
EXTT30=
PLAYORDER=
